<svg id="logo" width="109" height="40" viewBox="0 0 109 40" xmlns="http://www.w3.org/2000/svg" fill="none"> <g id="logotype"> <path fill="#020D5A" d="M55 0.00195312C57.7036 0.0369344 60.2104 0.886829 62.2871 2.31641C64.4988 0.853246 67.1495 0 70 0H90V0.0244141C100.581 0.545442 109 9.28963 109 20C109 31.0457 100.046 40 89 40C77.9543 40 69 31.0457 69 20C69 17.1555 69.5946 14.4499 70.665 12H70C68.8954 12 68 12.8954 68 14H67.9971C67.9691 16.1559 67.4235 18.1862 66.4785 19.9736C68.0603 22.0675 69 24.6736 69 27.5C69 34.4036 63.4036 40 56.5 40H44V28H58.5C58.7761 28 59 27.7761 59 27.5C59 27.2239 58.7761 27 58.5 27H55V26.9971C54.9421 26.9978 54.8842 27 54.8262 27H54.5C47.0442 27 41 20.9558 41 13.5C41 12.993 41.0286 12.4925 41.083 12H17V0H55V0.00195312ZM89 2C79.0589 2 71 10.0589 71 20C71 29.9411 79.0589 38 89 38C98.9411 38 107 29.9411 107 20C107 10.0589 98.9411 2 89 2ZM54.5 11C53.1193 11 52 12.1193 52 13.5C52 14.8807 53.1193 16 54.5 16C55.7095 16 56.7186 15.1411 56.9502 14C56.983 13.8385 57 13.6712 57 13.5C57 13.2293 56.9559 12.9693 56.876 12.7256C56.8729 12.7161 56.8694 12.7067 56.8662 12.6973C56.7589 12.3831 56.5919 12.0966 56.377 11.8525C56.3716 11.8465 56.3657 11.841 56.3604 11.835C56.3076 11.7762 56.2523 11.7196 56.1943 11.666C55.7487 11.2543 55.1545 11 54.5 11Z M104 20C104 21.6569 102.657 23 101 23C99.3431 23 98 21.6569 98 20C98 18.3431 99.3431 17 101 17C102.657 17 104 18.3431 104 20Z M36 22.5C36 23.8807 34.8807 25 33.5 25C32.1193 25 31 23.8807 31 22.5C31 21.1193 32.1193 20 33.5 20C34.8807 20 36 21.1193 36 22.5Z M16 13H29.5C36.9558 13 43 19.0442 43 26.5C43 33.9558 36.9558 40 29.5 40H16C7.16344 40 0 32.8366 0 24V0H16V13ZM29.5 15C23.1487 15 18 20.1487 18 26.5C18 32.8513 23.1487 38 29.5 38C35.8513 38 41 32.8513 41 26.5C41 20.1487 35.8513 15 29.5 15Z" clip-rule="evenodd" fill-rule="evenodd"></path> </g> </svg>